<?xml version="1.0" encoding="utf-8"?>
<!-- Generator: Adobe Illustrator 23.0.1, SVG Export Plug-In . SVG Version: 6.00 Build 0)  -->
<svg version="1.1" xmlns="http://www.w3.org/2000/svg" xmlns:xlink="http://www.w3.org/1999/xlink" x="0px" y="0px"
	 viewBox="0 0 800 600" style="enable-background:new 0 0 800 600;" xml:space="preserve">
<style type="text/css">
	.cpv{fill:#499F68;stroke:#000000;stroke-width:0.5;stroke-linecap:round;stroke-linejoin:round;}
</style>
<g id="cape-verde">
	<path class="cpv" d="M250.138,548.257l2.436,2.274l1.377,3.261l0.609,3.754l0.15,3.808l-0.786,3.552l-1.827,1.625l-1.977,1.205
		L248.787,570h-1.615l-1.615-2.282l-4.157-2.803l-1.501-2.73l-1.606,1.552l0.918-2.009l0.318-1.918l-0.318-1.908l-0.918-1.973h2.948
		l-0.883-4.229l2.56-1.471l3.963-0.539L250.138,548.257z M338.6,544.503l-1.077,2.485l0.715,2.475l1.068,2.493l0.097,2.576
		l-1.456,2.21l-7.573,6.995l-9.127,3.561l-8.35-1.096l-7.388-3.862l-12.472-10.521l-2.992-4.265l-1.271-4.659l1.218-4.613
		l3.01-5.372l3.866-4.797l5.279-3.856l13.267-6.809l3.875-1.234l4.493-0.42l4.687,1.051l3.045,2.696l1.968,3.528l2.798,7.539
		l2.489,10.991L338.6,544.503z M520.769,520.673l0.477,1.06l0.582,0.859l0.768,0.612l1.139,0.384l-1.024,3.354l-1.483,2.211
		l-5.04,3.783l1.615,1.535l-2.118,3.508l-1.324,3.535l-1.668,2.731l-3.098,1.096l-1.721,0.219l-3.389,0.941l-1.615,0.228
		l-1.748-0.201l-1.836-0.959l-1.606-0.228l-7.203-0.164l-6.011-0.804l-5.552-1.882l-5.808-2.028l-8.368-7.391l-3.354-3.902
		l-0.035-7.338l-2.463-1.764l-3.522-1.115l-2.992-1.499l-0.132-0.832l-1.483-5.155l-0.6-0.878l-0.865-0.868l-0.83-1.188l-0.538-1.81
		l0.591-1.81l3.089-5.486l0.768-2.048l-0.185-2.944l-2.78-7.654l2.074-0.613l1.315-1.518l0.733-2.195l0.194-2.643l0.477-2.424
		l1.077-1.528l1.059-1.125l0.486-1.208l-0.733-3.788l-1.809-4.374l-2.41-3.569l-2.463-1.391l1.439-0.522l4.493-2.416l-3.178-1.29
		l-1.404-0.238l6.064-4.741h1.615l0.124,1.712l0.335,0.943l0.459,0.815l0.424,1.272l4.06-2.526l3.469,2.123l1.174,3.853l-2.789,2.69
		l2.895,4.127l3.381,2.516l7.203,3.961l-1.633,1.683l3.751,0.777l1.845,1.592l3.292,5.433l6.7,7.326l3.654,2.323l3.257-0.43
		l0.697,1.043l0.362,0.768l0.538,0.631l1.236,0.622l-0.318,0.293l1.377,1.362l1.553,1.262l0.335,0.009l0.6,0.146l1.924-0.293
		l0.583,0.146l0.124,0.704l-0.265,1.82l0.141,0.695l8.88,16.857l0.847,0.841l0.635,0.247l0.635,0.494L520.769,520.673z
		 M592.134,455.942l1.28,2.819l0.3,3.551l-0.229,6.057l2.41,12.816l-0.318,6.174l-3.443,5.688l-1.086,0.43l-3.442,0.439
		l-1.404,0.539l-0.803,1.079l-1.041,2.661l-1.121,0.869l-3.019,0.283l-2.869-0.777l-4.599-2.578l-5.093-3.713l-2.48-2.643
		l-1.324-2.853l0.662-2.771l1.695-2.78l0.874-2.726l-1.748-2.598l3.072-1.83l1.368-2.909l-0.865-2.443l-3.575-0.357l1.218-3.294
		l4.687-3.514l3.107-5.619l-1.015-0.421l-0.15-0.201l0.044-0.311l-0.477-0.75l3.01-1.29l2.913-1.766l0.062,0.732l-0.062,2.325
		l1.862-1.483l0.503-0.494l0.583-1.08l1.615,1.666l-1.615,1.391l3.107,1.483l4.864-1.172L592.134,455.942z M688.815,275.228
		l0.812,0.386l1.642,2.177l0.918,2.435l-1.289,1.158l-0.671,0.974l-0.327,2.113l-0.583,2.131l-3.61,2.324l-11.854,9.561
		l-7.918,4.279l-4.025,1.286l-12.481,0.799l-2.216-0.34l-2.118-1.093l-3.063-2.654l-2.498-0.735l-7.865-3.6l-2.648-2.516
		l-1.351-4.822l0.159-4.29l1.192-4.024l2.242-2.986l3.213-1.167l4.131-4.098l-2.357-19.741l1.915-7.005l0.865,1.636l0.953,1.195
		l2.63,1.94l3.725,1.793l5.508,1.875l5.014,0.588l2.189-2.022l1.66-3.493l3.875-0.662l12.825,3.273l2.348,0.956l2.171,1.553
		l0.874,1.609l1.315,4.302l0.909,0.882l3.707,1.59l0.821,3.814L688.815,275.228z M388.278,162.11l4.246,3.417l2.286,1.317
		l0.997-0.866v7.792l-2.445,0.571l-15.323,0.138l-16.753-7.515l-8.968-2.183l-8.465,3.371l-3.045,3.73l-6.285,11.39l-2.03,8.543
		l-1.889-2.78l-3.054-8.378l-1.28-1.915l-1.474-1.529l-1.183-1.906l-0.494-3.067l-0.141-2.348l-0.512-1.722l-1.121-1.05
		l-1.951-0.368l-5.031-1.529l-3.566-3.841l-1.289-5.057l1.748-5.169l13.258-4.367l1.571,0.221l2.966,1.189l2.577,1.714l5.102,4.505
		l2.674,1.373l2.268,0.111l12.058-1.87l2.101,0.433l7.926,3.814l1.757,0.396l17.892,1.501L388.278,162.11z M635.218,166.752
		l-2.648-17.199l-3.284-6.81l-4.572,2.359l-0.9-3.281l-0.3-4.424l0.671-4.092l2.004-2.249v-1.549l-2.586-0.793l-1.412-2.166
		l-0.503-3.033l0.168-7.1l4.484-3.578l10.345-6.539l1.183,1.614l3.919,3.707l0.83,1.706l-0.265,0.968l-1.395,2.683l-1.527,2.222
		l0.397,0.627l0.847,0.461l0.477,0.784l-0.609,13.432l0.609,4.277l0.971,1.512l2.86,2.682l0.618,1.299l-0.229,2.525l-0.918,4.497
		l-0.212,2.322l-0.424,1.253l-2.004,1.456l-0.662,1.142l0.079,1.207l0.45,1.686l0.556,1.4l0.38,0.35l-1.439,1.815l-1.545,0.838
		l-1.907,0.682L635.218,166.752z M203.408,98.412l-0.688,0.969l1.836,2.131l3.107,2.131l3.089,0.968l1.042,1.236l1.042,2.822
		l0.583,3.154l-0.318,2.213l-3.478,2.766l-5.296,1.918l-5.932,1.134l-5.481,0.36l-1.386,0.498l-2.101,2.121l-0.83,0.498
		l-1.562-0.221l-13.655-5.329l-2.18-1.236l-1.721-1.669l-1.077-2.241l-2.825,1.402l0.953-4.832l2.507-3.984l3.169-2.712l2.922-0.996
		l6.797-0.138l2.78-1.282l-1.35-3.081l6.117-3.33l1.28-1.596h1.483l1.315,3.192l2.171-0.424l3.787-2.768l2.171,1.181l1.942,2.159
		l0.883,2.066L203.408,98.412z M175.807,66.666l-1.862,2.326l-13.081,6.203l-5.976,6.221l-4.237,5.611l-5.402,3.885l-9.427,1.172
		h-8.218l-2.525,0.517l-1.915,0.803l-1.96-0.046l-2.622-1.974l-0.565-2.805l-0.106-15.08l-2.966-5.28l-0.759-0.619l-3.743-0.72
		l-1.421-0.988l-1.209-3.804l1.05-3.25l5.349-6.187l3.063-2.106l3.178-0.443l2.825,0.24l2.03-0.074l2.207-1.589l5.261-5.08
		l4.131-1.81l5.12-3.196l5.022-1.275l13.214-6.467L163.74,30l2.507,0.813l2.507,1.737l5.543-0.185l3.125,0.85l2.03,1.58l0.847,1.765
		l0.088,5.173l1.148,1.035l5.102,1.404l1.148,0.739l0.671,1.182l2.975,2.549l0.803,1.626l-0.38,2.429l-1.298,2.207l-7.838,8.569
		L181.73,63.5l-0.918,0.822l-4.078,1.569L175.807,66.666z"/>
</g>
</svg>
